<svg width="958" height="1200" viewBox="0 0 958 1200" fill="none" xmlns="http://www.w3.org/2000/svg">
<path d="M787.266 184.314C800.814 207.984 789.727 217.042 778.68 223.246C767.633 229.429 754.36 231.615 740.851 208.004C727.244 184.334 726.732 134 726.732 134C726.732 134 773.678 160.663 787.266 184.314Z" fill="#FFCE00"/>
<path d="M845.87 252.233C834.153 276.868 820.428 272.969 809.046 267.494C797.604 261.921 788.25 252.272 799.849 227.716C811.566 203.022 852.506 173.838 852.506 173.838C852.506 173.838 857.508 227.617 845.87 252.233Z" fill="#FFCE00"/>
<path d="M853.826 345.259C836.162 366.054 823.874 358.748 814.323 350.517C804.733 342.226 798.175 330.47 815.702 309.734C833.326 288.86 880.509 271.255 880.509 271.255C880.509 271.255 871.431 324.464 853.826 345.259Z" fill="#FFCE00"/>
<path d="M775.076 317.847C799.278 331.947 794.335 345.338 787.876 356.228C781.398 367.137 770.882 375.605 746.719 361.564C722.458 347.484 695.716 303.551 695.716 303.551C695.716 303.551 750.815 303.787 775.076 317.847Z" fill="#FFCE00"/>
<path d="M821.924 440.865C798.254 454.414 789.196 443.386 782.953 432.378C776.75 421.33 774.564 408.018 798.136 394.47C821.786 380.863 872.159 380.272 872.159 380.272C872.159 380.272 845.575 427.278 821.924 440.865Z" fill="#FFCE00"/>
<path d="M760.701 391.122C778.03 413.198 768.44 423.792 758.456 431.531C748.433 439.329 735.436 443.268 718.185 421.271C700.895 399.196 692.349 348.508 692.349 348.508C692.349 348.508 743.391 369.126 760.701 391.122Z" fill="#FFCE00"/>
<path d="M772.378 521.505C745.479 526.231 740.733 512.782 738.587 500.316C736.46 487.792 738.882 474.578 765.604 469.793C792.524 465.008 840.1 481.55 840.1 481.55C840.1 481.55 799.121 516.7 772.378 521.505Z" fill="#FFCE00"/>
<path d="M728.465 454.689C740.3 480.132 728.465 488.245 716.964 493.503C705.405 498.741 691.935 499.627 680.218 474.303C668.383 448.841 671.711 397.503 671.711 397.503C671.711 397.503 716.728 429.286 728.465 454.689Z" fill="#FFCE00"/>
<path d="M674.823 503.959C679.647 531.529 666.198 536.353 653.752 538.48C641.228 540.508 627.916 537.929 623.13 510.438C618.306 482.79 634.69 434.032 634.69 434.032C634.69 434.032 669.978 476.351 674.823 503.959Z" fill="#FFCE00"/>
<path d="M700.777 583.516C673.031 579.401 672.735 565.065 674.646 552.599C676.694 540.036 683.31 528.299 710.938 532.434C738.685 536.59 779.783 567.546 779.783 567.546C779.783 567.546 728.445 587.652 700.777 583.516Z" fill="#FFCE00"/>
<path d="M614.249 548.464C616.258 576.427 602.375 579.854 589.752 580.7C577.09 581.429 564.152 577.471 562.124 549.665C560.194 521.663 581.481 474.854 581.481 474.854C581.481 474.854 612.3 520.56 614.249 548.464Z" fill="#FFCE00"/>
<path d="M621.417 630.187C594.951 620.794 597.373 606.714 601.705 594.82C606.057 582.886 614.86 572.626 641.188 581.941C667.615 591.334 701.998 629.577 701.998 629.577C701.998 629.577 647.766 639.502 621.417 630.187Z" fill="#FFCE00"/>
<path d="M767.16 241.599C794.06 248.885 792.721 263.182 789.334 275.312C785.907 287.541 777.932 298.45 751.15 291.184C724.152 283.898 687.288 248.452 687.288 248.452C687.288 248.452 740.28 234.332 767.16 241.599Z" fill="#FFCE00"/>
<path d="M410.617 1116.45C392.016 1096.5 400.739 1085.15 410.076 1076.58C419.417 1068.04 431.838 1062.87 450.387 1082.77C469.045 1102.7 481.051 1151.59 481.051 1151.59C481.051 1151.59 429.252 1136.36 410.617 1116.45Z" fill="#FFCE00"/>
<path d="M338.038 1063.72C343.813 1037.06 358.066 1037.72 370.398 1040.45C382.811 1043.26 394.123 1050.51 388.445 1077.07C382.684 1103.79 349.499 1141.56 349.499 1141.56C349.499 1141.56 332.335 1090.35 338.038 1063.72Z" fill="#FFCE00"/>
<path d="M309.026 974.979C321.468 950.696 335.101 955 346.281 960.83C357.512 966.708 366.584 976.654 354.262 1000.85C341.876 1025.2 299.968 1053.12 299.968 1053.12C299.968 1053.12 296.641 999.248 309.026 974.979Z" fill="#FFCE00"/>
<path d="M391.957 983.662C365.172 975.468 366.923 961.302 370.721 949.224C374.535 937.122 382.836 926.475 409.568 934.62C436.406 942.78 472.483 979.437 472.483 979.437C472.483 979.437 418.789 991.803 391.957 983.662Z" fill="#FFCE00"/>
<path d="M318.226 874.612C338.172 856.011 349.512 864.676 358.105 873.965C366.67 883.302 371.841 895.761 351.991 914.34C332.077 932.994 283.174 945.085 283.174 945.085C283.174 945.085 298.308 893.246 318.226 874.612Z" fill="#FFCE00"/>
<path d="M389.2 909.041C367.283 891.512 374.197 879.006 382.147 869.189C390.123 859.306 401.875 852.5 423.697 869.971C445.576 887.508 465.484 934.9 465.484 934.9C465.484 934.9 411.08 926.497 389.2 909.041Z" fill="#FFCE00"/>
<path d="M348.024 784.78C373.131 774.03 380.826 786.038 385.766 797.683C390.699 809.389 391.362 822.807 366.441 833.574C341.329 844.387 291.23 839.16 291.23 839.16C291.23 839.16 323.089 795.572 348.024 784.78Z" fill="#FFCE00"/>
<path d="M406.05 839.788C388.712 817.725 398.379 807.121 408.373 799.373C418.429 791.631 431.339 787.689 448.535 809.664C465.877 831.746 474.374 882.485 474.374 882.485C474.374 882.485 423.284 861.835 406.05 839.788Z" fill="#FFCE00"/>
<path d="M447.008 779.559C436.008 753.823 447.999 746.051 459.629 741.136C471.358 736.298 484.907 735.766 495.85 761.434C506.868 787.247 502.064 838.46 502.064 838.46C502.064 838.46 458.035 805.329 447.008 779.559Z" fill="#FFCE00"/>
<path d="M403.553 708.043C431.506 705.706 435.071 719.595 436.061 732.167C436.939 744.866 433.181 757.804 405.339 760.095C377.377 762.393 330.291 741.652 330.291 741.652C330.291 741.652 375.673 710.342 403.553 708.043Z" fill="#FFCE00"/>
<path d="M495.803 722.385C487.455 695.622 500.187 689.112 512.282 685.402C524.442 681.798 537.942 682.694 546.273 709.299C554.554 736.119 544.531 786.555 544.531 786.555C544.531 786.555 504.08 749.105 495.803 722.385Z" fill="#FFCE00"/>
<path d="M470.142 644.465C498.055 647.559 498.916 661.82 497.417 674.389C495.909 687.002 489.685 699.002 461.924 695.953C434.049 692.851 391.834 663.481 391.834 663.481C391.834 663.481 442.362 641.421 470.142 644.465Z" fill="#FFCE00"/>
<path d="M417.095 1056.08C389.242 1055.14 387.277 1040.91 387.801 1028.33C388.341 1015.64 393.611 1003.2 421.345 1004.15C449.294 1005.07 493.285 1031.15 493.285 1031.15C493.285 1031.15 444.924 1057.01 417.095 1056.08Z" fill="#FFCE00"/>
<path d="M355.571 184.314C340.813 207.984 352.89 217.042 364.924 223.246C376.958 229.429 391.416 231.615 406.131 208.004C420.954 184.334 421.512 134 421.512 134C421.512 134 370.372 160.663 355.571 184.314Z" fill="#FFCE00"/>
<path d="M291.733 252.233C304.496 276.868 319.447 272.969 331.846 267.494C344.309 261.921 354.498 252.272 341.864 227.716C329.1 203.022 284.504 173.838 284.504 173.838C284.504 173.838 279.055 227.617 291.733 252.233Z" fill="#FFCE00"/>
<path d="M283.066 345.259C302.308 366.054 315.693 358.748 326.097 350.517C336.544 342.226 343.687 330.47 324.596 309.734C305.397 288.86 254 271.255 254 271.255C254 271.255 263.889 324.464 283.066 345.259Z" fill="#FFCE00"/>
<path d="M368.849 317.847C342.486 331.947 347.87 345.338 354.906 356.228C361.963 367.137 373.418 375.605 399.739 361.564C426.167 347.484 455.297 303.551 455.297 303.551C455.297 303.551 395.277 303.787 368.849 317.847Z" fill="#FFCE00"/>
<path d="M317.817 440.865C343.601 454.414 353.469 443.386 360.269 432.378C367.026 421.33 369.407 408.018 343.73 394.47C317.967 380.863 263.095 380.272 263.095 380.272C263.095 380.272 292.054 427.278 317.817 440.865Z" fill="#FFCE00"/>
<path d="M384.509 391.122C365.632 413.198 376.078 423.792 386.954 431.531C397.873 439.329 412.03 443.268 430.821 421.271C449.655 399.196 458.965 348.508 458.965 348.508C458.965 348.508 403.364 369.126 384.509 391.122Z" fill="#FFCE00"/>
<path d="M371.788 521.505C401.09 526.231 406.26 512.782 408.598 500.316C410.915 487.792 408.276 474.578 379.167 469.793C349.844 465.008 298.018 481.55 298.018 481.55C298.018 481.55 342.657 516.7 371.788 521.505Z" fill="#FFCE00"/>
<path d="M419.624 454.689C406.732 480.132 419.624 488.245 432.151 493.503C444.743 498.741 459.416 499.627 472.179 474.303C485.071 448.841 481.446 397.503 481.446 397.503C481.446 397.503 432.409 429.286 419.624 454.689Z" fill="#FFCE00"/>
<path d="M478.057 503.959C472.801 531.529 487.452 536.353 501.009 538.48C514.652 540.508 529.153 537.929 534.366 510.438C539.621 482.79 521.774 434.032 521.774 434.032C521.774 434.032 483.334 476.351 478.057 503.959Z" fill="#FFCE00"/>
<path d="M449.784 583.516C480.009 579.401 480.331 565.065 478.25 552.599C476.019 540.036 468.811 528.299 438.715 532.434C408.491 536.59 363.722 567.546 363.722 567.546C363.722 567.546 419.645 587.652 449.784 583.516Z" fill="#FFCE00"/>
<path d="M544.04 548.464C541.852 576.427 556.975 579.854 570.725 580.7C584.519 581.429 598.612 577.471 600.821 549.665C602.924 521.663 579.735 474.854 579.735 474.854C579.735 474.854 546.164 520.56 544.04 548.464Z" fill="#FFCE00"/>
<path d="M536.232 630.187C565.062 620.794 562.424 606.714 557.705 594.82C552.964 582.886 543.375 572.626 514.695 581.941C485.908 591.334 448.454 629.577 448.454 629.577C448.454 629.577 507.531 639.502 536.232 630.187Z" fill="#FFCE00"/>
<path d="M377.473 241.599C348.17 248.885 349.629 263.182 353.319 275.312C357.051 287.541 365.739 298.45 394.912 291.184C424.322 283.898 464.478 248.452 464.478 248.452C464.478 248.452 406.753 234.332 377.473 241.599Z" fill="#FFCE00"/>
<path d="M746.416 1129.45C766.678 1109.5 757.177 1098.15 747.007 1089.58C736.831 1081.04 723.3 1075.87 703.095 1095.77C682.77 1115.7 669.692 1164.59 669.692 1164.59C669.692 1164.59 726.117 1149.36 746.416 1129.45Z" fill="#FFCE00"/>
<path d="M825.478 1076.72C819.188 1050.06 803.661 1050.72 790.227 1053.45C776.707 1056.26 764.384 1063.51 770.569 1090.07C776.845 1116.79 812.993 1154.56 812.993 1154.56C812.993 1154.56 831.69 1103.35 825.478 1076.72Z" fill="#FFCE00"/>
<path d="M857.081 987.979C843.528 963.696 828.677 968 816.499 973.83C804.265 979.708 794.383 989.654 807.805 1013.85C821.297 1038.2 866.949 1066.12 866.949 1066.12C866.949 1066.12 870.572 1012.25 857.081 987.979Z" fill="#FFCE00"/>
<path d="M766.744 996.662C795.92 988.468 794.013 974.302 789.876 962.224C785.722 950.122 776.679 939.475 747.559 947.62C718.325 955.781 679.025 992.437 679.025 992.437C679.025 992.437 737.514 1004.8 766.744 996.662Z" fill="#FFCE00"/>
<path d="M847.06 887.612C825.332 869.011 812.98 877.676 803.618 886.965C794.289 896.302 788.656 908.762 810.279 927.34C831.971 945.994 885.243 958.085 885.243 958.085C885.243 958.085 868.756 906.246 847.06 887.612Z" fill="#FFCE00"/>
<path d="M769.747 922.041C793.621 904.512 786.09 892.006 777.429 882.189C768.742 872.306 755.94 865.5 732.168 882.971C708.336 900.508 686.65 947.9 686.65 947.9C686.65 947.9 745.913 939.497 769.747 922.041Z" fill="#FFCE00"/>
<path d="M814.6 797.78C787.25 787.03 778.868 799.039 773.488 810.683C768.113 822.389 767.391 835.807 794.538 846.574C821.893 857.387 876.466 852.16 876.466 852.16C876.466 852.16 841.762 808.572 814.6 797.78Z" fill="#FFCE00"/>
<path d="M751.391 852.788C770.278 830.725 759.748 820.121 748.861 812.373C737.908 804.631 723.844 800.689 705.112 822.664C686.221 844.746 676.965 895.485 676.965 895.485C676.965 895.485 732.619 874.835 751.391 852.788Z" fill="#FFCE00"/>
<path d="M706.776 792.559C718.758 766.823 705.696 759.051 693.028 754.136C680.251 749.298 665.492 748.766 653.571 774.435C641.57 800.247 646.802 851.46 646.802 851.46C646.802 851.46 694.763 818.329 706.776 792.559Z" fill="#FFCE00"/>
<path d="M754.112 721.043C723.663 718.706 719.779 732.595 718.701 745.167C717.744 757.866 721.838 770.804 752.166 773.095C782.625 775.393 833.917 754.652 833.917 754.652C833.917 754.652 784.482 723.342 754.112 721.043Z" fill="#FFCE00"/>
<path d="M653.623 735.385C662.716 708.622 648.847 702.112 635.672 698.402C622.426 694.798 607.72 695.694 598.644 722.299C589.624 749.119 600.542 799.555 600.542 799.555C600.542 799.555 644.606 762.105 653.623 735.385Z" fill="#FFCE00"/>
<path d="M681.576 657.465C651.17 660.559 650.232 674.82 651.864 687.39C653.507 700.002 660.287 712.002 690.527 708.954C720.892 705.851 766.877 676.481 766.877 676.481C766.877 676.481 711.837 654.421 681.576 657.465Z" fill="#FFCE00"/>
<path d="M739.361 1069.08C769.701 1068.14 771.841 1053.91 771.27 1041.33C770.682 1028.64 764.941 1016.2 734.731 1017.15C704.286 1018.07 656.366 1044.15 656.366 1044.15C656.366 1044.15 709.046 1070.01 739.361 1069.08Z" fill="#FFCE00"/>
</svg>
